<svg xmlns="http://www.w3.org/2000/svg" xmlns:xlink="http://www.w3.org/1999/xlink" preserveAspectRatio="xMidYMid" width="12.5" height="7.5" viewBox="0 0 25 15">
  <defs>
    <style>

      .cls-2 {
        fill: #ffffff;
      }
    </style>
  </defs>
  <path d="M24.568,1.962 C24.568,1.962 14.191,13.426 14.191,13.426 C14.191,13.426 14.296,13.538 14.296,13.538 C14.296,13.538 12.672,15.104 12.672,15.104 C12.672,15.104 11.115,13.471 11.115,13.471 C11.115,13.471 11.129,13.455 11.129,13.455 C11.129,13.455 0.157,1.727 0.157,1.727 C0.157,1.727 -0.270,0.780 0.276,0.261 C0.821,-0.259 1.780,0.160 1.780,0.160 C1.780,0.160 12.648,11.777 12.648,11.777 C12.648,11.777 23.011,0.329 23.011,0.329 C23.011,0.329 23.771,-0.213 24.498,0.479 C25.225,1.171 24.568,1.962 24.568,1.962 Z" id="path-1" class="cls-2" fill-rule="evenodd"/>
</svg>
